<svg width="32" height="32" viewBox="0 0 32 32" fill="none" xmlns="http://www.w3.org/2000/svg">
  <rect width="32" height="32" rx="6" fill="#2C3E50"/>
  <path d="M7 16C7 13.6131 7.94821 11.3239 9.63604 9.63604C11.3239 7.94821 13.6131 7 16 7C18.3869 7 20.6761 7.94821 22.364 9.63604C24.0518 11.3239 25 13.6131 25 16V25H7V16Z" fill="#1ABC9C"/>
  <path d="M13 13.5C13 14.3284 13.6716 15 14.5 15C15.3284 15 16 14.3284 16 13.5C16 12.6716 15.3284 12 14.5 12C13.6716 12 13 12.6716 13 13.5Z" fill="white"/>
  <path d="M16 13.5C16 14.3284 16.6716 15 17.5 15C18.3284 15 19 14.3284 19 13.5C19 12.6716 18.3284 12 17.5 12C16.6716 12 16 12.6716 16 13.5Z" fill="white"/>
  <path d="M13 19H19V21C19 21.5304 18.7893 22.0391 18.4142 22.4142C18.0391 22.7893 17.5304 23 17 23H15C14.4696 23 13.9609 22.7893 13.5858 22.4142C13.2107 22.0391 13 21.5304 13 21V19Z" fill="white"/>
</svg>